<mxfile host="app.diagrams.net" agent="Mozilla/5.0 (X11; Linux x86_64) AppleWebKit/537.36 (KHTML, like Gecko) Chrome/139.0.0.0 Safari/537.36" version="28.2.3">
  <diagram name="Página-1" id="Hms4KzzHoYOa84nBv6Qb">
    <mxGraphModel dx="2132" dy="842" grid="1" gridSize="10" guides="1" tooltips="1" connect="1" arrows="1" fold="1" page="1" pageScale="1" pageWidth="827" pageHeight="1169" math="0" shadow="0">
      <root>
        <mxCell id="0" />
        <mxCell id="1" parent="0" />
        <mxCell id="bT5ccE-IVqNjcDC3qMeR-1" value="Farmacia" style="rounded=0;whiteSpace=wrap;html=1;" vertex="1" parent="1">
          <mxGeometry x="770" y="120" width="120" height="60" as="geometry" />
        </mxCell>
        <mxCell id="bT5ccE-IVqNjcDC3qMeR-3" value="Laboratorio" style="rounded=0;whiteSpace=wrap;html=1;" vertex="1" parent="1">
          <mxGeometry x="770" y="390" width="120" height="60" as="geometry" />
        </mxCell>
        <mxCell id="bT5ccE-IVqNjcDC3qMeR-4" value="Cliente" style="rounded=0;whiteSpace=wrap;html=1;" vertex="1" parent="1">
          <mxGeometry x="1300" y="390" width="120" height="60" as="geometry" />
        </mxCell>
        <mxCell id="bT5ccE-IVqNjcDC3qMeR-5" value="Medicina" style="shape=process;whiteSpace=wrap;html=1;backgroundOutline=1;" vertex="1" parent="1">
          <mxGeometry x="280" y="390" width="120" height="60" as="geometry" />
        </mxCell>
        <mxCell id="bT5ccE-IVqNjcDC3qMeR-6" value="" style="rhombus;whiteSpace=wrap;html=1;" vertex="1" parent="1">
          <mxGeometry x="500" y="250" width="80" height="80" as="geometry" />
        </mxCell>
        <mxCell id="bT5ccE-IVqNjcDC3qMeR-7" value="" style="rhombus;whiteSpace=wrap;html=1;" vertex="1" parent="1">
          <mxGeometry x="790" y="250" width="80" height="80" as="geometry" />
        </mxCell>
        <mxCell id="bT5ccE-IVqNjcDC3qMeR-8" value="" style="rhombus;whiteSpace=wrap;html=1;" vertex="1" parent="1">
          <mxGeometry x="1140" y="250" width="80" height="80" as="geometry" />
        </mxCell>
        <mxCell id="bT5ccE-IVqNjcDC3qMeR-10" value="" style="verticalLabelPosition=bottom;verticalAlign=top;html=1;shape=mxgraph.basic.acute_triangle;dx=0.5;rotation=-180;" vertex="1" parent="1">
          <mxGeometry x="290" y="580" width="100" height="70" as="geometry" />
        </mxCell>
        <mxCell id="bT5ccE-IVqNjcDC3qMeR-11" value="" style="ellipse;whiteSpace=wrap;html=1;aspect=fixed;" vertex="1" parent="1">
          <mxGeometry x="322.5" y="545" width="35" height="35" as="geometry" />
        </mxCell>
        <mxCell id="bT5ccE-IVqNjcDC3qMeR-12" value="Tipo" style="ellipse;whiteSpace=wrap;html=1;" vertex="1" parent="1">
          <mxGeometry x="490" y="600" width="80" height="55" as="geometry" />
        </mxCell>
        <mxCell id="bT5ccE-IVqNjcDC3qMeR-13" value="" style="endArrow=none;html=1;rounded=0;exitX=0;exitY=0;exitDx=25;exitDy=35;exitPerimeter=0;entryX=0;entryY=0.5;entryDx=0;entryDy=0;" edge="1" parent="1" source="bT5ccE-IVqNjcDC3qMeR-10" target="bT5ccE-IVqNjcDC3qMeR-12">
          <mxGeometry width="50" height="50" relative="1" as="geometry">
            <mxPoint x="830" y="750" as="sourcePoint" />
            <mxPoint x="880" y="700" as="targetPoint" />
          </mxGeometry>
        </mxCell>
        <mxCell id="bT5ccE-IVqNjcDC3qMeR-14" value="" style="endArrow=none;html=1;rounded=0;entryX=0;entryY=0;entryDx=50;entryDy=0;entryPerimeter=0;" edge="1" parent="1" source="bT5ccE-IVqNjcDC3qMeR-65" target="bT5ccE-IVqNjcDC3qMeR-10">
          <mxGeometry width="50" height="50" relative="1" as="geometry">
            <mxPoint x="180" y="760" as="sourcePoint" />
            <mxPoint x="880" y="700" as="targetPoint" />
          </mxGeometry>
        </mxCell>
        <mxCell id="bT5ccE-IVqNjcDC3qMeR-15" value="" style="endArrow=none;html=1;rounded=0;entryX=0;entryY=0;entryDx=50;entryDy=0;entryPerimeter=0;" edge="1" parent="1" target="bT5ccE-IVqNjcDC3qMeR-10">
          <mxGeometry width="50" height="50" relative="1" as="geometry">
            <mxPoint x="340" y="760" as="sourcePoint" />
            <mxPoint x="880" y="700" as="targetPoint" />
          </mxGeometry>
        </mxCell>
        <mxCell id="bT5ccE-IVqNjcDC3qMeR-16" value="" style="endArrow=none;html=1;rounded=0;exitX=0;exitY=0;exitDx=50;exitDy=0;exitPerimeter=0;" edge="1" parent="1" source="bT5ccE-IVqNjcDC3qMeR-10">
          <mxGeometry width="50" height="50" relative="1" as="geometry">
            <mxPoint x="380" y="670" as="sourcePoint" />
            <mxPoint x="520" y="760" as="targetPoint" />
          </mxGeometry>
        </mxCell>
        <mxCell id="bT5ccE-IVqNjcDC3qMeR-17" value="" style="endArrow=none;html=1;rounded=0;entryX=0.5;entryY=1;entryDx=0;entryDy=0;exitX=0.5;exitY=0;exitDx=0;exitDy=0;" edge="1" parent="1" source="bT5ccE-IVqNjcDC3qMeR-11" target="bT5ccE-IVqNjcDC3qMeR-5">
          <mxGeometry width="50" height="50" relative="1" as="geometry">
            <mxPoint x="830" y="750" as="sourcePoint" />
            <mxPoint x="880" y="700" as="targetPoint" />
          </mxGeometry>
        </mxCell>
        <mxCell id="bT5ccE-IVqNjcDC3qMeR-18" value="Antibiotico" style="shape=process;whiteSpace=wrap;html=1;backgroundOutline=1;" vertex="1" parent="1">
          <mxGeometry x="120" y="760" width="120" height="60" as="geometry" />
        </mxCell>
        <mxCell id="bT5ccE-IVqNjcDC3qMeR-19" value="Vacuna" style="shape=process;whiteSpace=wrap;html=1;backgroundOutline=1;" vertex="1" parent="1">
          <mxGeometry x="280" y="760" width="120" height="60" as="geometry" />
        </mxCell>
        <mxCell id="bT5ccE-IVqNjcDC3qMeR-20" value="Anagésico" style="shape=process;whiteSpace=wrap;html=1;backgroundOutline=1;" vertex="1" parent="1">
          <mxGeometry x="460" y="760" width="120" height="60" as="geometry" />
        </mxCell>
        <mxCell id="bT5ccE-IVqNjcDC3qMeR-21" style="edgeStyle=orthogonalEdgeStyle;rounded=0;orthogonalLoop=1;jettySize=auto;html=1;exitX=0.5;exitY=0;exitDx=0;exitDy=0;entryX=0.378;entryY=0.035;entryDx=0;entryDy=0;entryPerimeter=0;" edge="1" parent="1" source="bT5ccE-IVqNjcDC3qMeR-18" target="bT5ccE-IVqNjcDC3qMeR-18">
          <mxGeometry relative="1" as="geometry" />
        </mxCell>
        <mxCell id="bT5ccE-IVqNjcDC3qMeR-22" value="" style="endArrow=none;html=1;rounded=0;entryX=0;entryY=1;entryDx=0;entryDy=0;exitX=1;exitY=0;exitDx=0;exitDy=0;" edge="1" parent="1" source="bT5ccE-IVqNjcDC3qMeR-6" target="bT5ccE-IVqNjcDC3qMeR-1">
          <mxGeometry width="50" height="50" relative="1" as="geometry">
            <mxPoint x="700" y="380" as="sourcePoint" />
            <mxPoint x="750" y="330" as="targetPoint" />
          </mxGeometry>
        </mxCell>
        <mxCell id="bT5ccE-IVqNjcDC3qMeR-23" value="" style="endArrow=none;html=1;rounded=0;entryX=0.5;entryY=1;entryDx=0;entryDy=0;exitX=0.5;exitY=0;exitDx=0;exitDy=0;" edge="1" parent="1" source="bT5ccE-IVqNjcDC3qMeR-7" target="bT5ccE-IVqNjcDC3qMeR-1">
          <mxGeometry width="50" height="50" relative="1" as="geometry">
            <mxPoint x="700" y="380" as="sourcePoint" />
            <mxPoint x="750" y="330" as="targetPoint" />
          </mxGeometry>
        </mxCell>
        <mxCell id="bT5ccE-IVqNjcDC3qMeR-24" value="" style="endArrow=none;html=1;rounded=0;entryX=1;entryY=1;entryDx=0;entryDy=0;exitX=0;exitY=0;exitDx=0;exitDy=0;" edge="1" parent="1" source="bT5ccE-IVqNjcDC3qMeR-8" target="bT5ccE-IVqNjcDC3qMeR-1">
          <mxGeometry width="50" height="50" relative="1" as="geometry">
            <mxPoint x="700" y="380" as="sourcePoint" />
            <mxPoint x="750" y="330" as="targetPoint" />
          </mxGeometry>
        </mxCell>
        <mxCell id="bT5ccE-IVqNjcDC3qMeR-25" value="" style="endArrow=none;html=1;rounded=0;entryX=0.5;entryY=1;entryDx=0;entryDy=0;exitX=0.5;exitY=0;exitDx=0;exitDy=0;" edge="1" parent="1" source="bT5ccE-IVqNjcDC3qMeR-3" target="bT5ccE-IVqNjcDC3qMeR-7">
          <mxGeometry width="50" height="50" relative="1" as="geometry">
            <mxPoint x="700" y="380" as="sourcePoint" />
            <mxPoint x="750" y="330" as="targetPoint" />
          </mxGeometry>
        </mxCell>
        <mxCell id="bT5ccE-IVqNjcDC3qMeR-26" value="" style="endArrow=none;html=1;rounded=0;entryX=0;entryY=1;entryDx=0;entryDy=0;exitX=0.5;exitY=0;exitDx=0;exitDy=0;" edge="1" parent="1" source="bT5ccE-IVqNjcDC3qMeR-5" target="bT5ccE-IVqNjcDC3qMeR-6">
          <mxGeometry width="50" height="50" relative="1" as="geometry">
            <mxPoint x="450" y="380" as="sourcePoint" />
            <mxPoint x="500" y="330" as="targetPoint" />
          </mxGeometry>
        </mxCell>
        <mxCell id="bT5ccE-IVqNjcDC3qMeR-27" value="" style="endArrow=none;html=1;rounded=0;entryX=1;entryY=1;entryDx=0;entryDy=0;exitX=0.5;exitY=0;exitDx=0;exitDy=0;" edge="1" parent="1" source="bT5ccE-IVqNjcDC3qMeR-4" target="bT5ccE-IVqNjcDC3qMeR-8">
          <mxGeometry width="50" height="50" relative="1" as="geometry">
            <mxPoint x="1110" y="440" as="sourcePoint" />
            <mxPoint x="1160" y="390" as="targetPoint" />
          </mxGeometry>
        </mxCell>
        <mxCell id="bT5ccE-IVqNjcDC3qMeR-28" value="id" style="ellipse;whiteSpace=wrap;html=1;" vertex="1" parent="1">
          <mxGeometry x="145" y="350" width="70" height="40" as="geometry" />
        </mxCell>
        <mxCell id="bT5ccE-IVqNjcDC3qMeR-38" value="Precio" style="ellipse;whiteSpace=wrap;html=1;" vertex="1" parent="1">
          <mxGeometry x="145" y="410" width="70" height="40" as="geometry" />
        </mxCell>
        <mxCell id="bT5ccE-IVqNjcDC3qMeR-40" value="Stock" style="ellipse;whiteSpace=wrap;html=1;" vertex="1" parent="1">
          <mxGeometry x="210" y="520" width="70" height="40" as="geometry" />
        </mxCell>
        <mxCell id="bT5ccE-IVqNjcDC3qMeR-41" value="Vendidos" style="ellipse;whiteSpace=wrap;html=1;" vertex="1" parent="1">
          <mxGeometry x="150" y="470" width="70" height="40" as="geometry" />
        </mxCell>
        <mxCell id="bT5ccE-IVqNjcDC3qMeR-43" value="nombre" style="ellipse;whiteSpace=wrap;html=1;" vertex="1" parent="1">
          <mxGeometry x="190" y="290" width="70" height="40" as="geometry" />
        </mxCell>
        <mxCell id="bT5ccE-IVqNjcDC3qMeR-46" value="Venta" style="ellipse;whiteSpace=wrap;html=1;" vertex="1" parent="1">
          <mxGeometry x="400" y="460" width="70" height="40" as="geometry" />
        </mxCell>
        <mxCell id="bT5ccE-IVqNjcDC3qMeR-50" value="Unidades" style="ellipse;whiteSpace=wrap;html=1;" vertex="1" parent="1">
          <mxGeometry x="1490" y="400" width="70" height="40" as="geometry" />
        </mxCell>
        <mxCell id="bT5ccE-IVqNjcDC3qMeR-51" value="" style="ellipse;whiteSpace=wrap;html=1;" vertex="1" parent="1">
          <mxGeometry x="1260" y="500" width="70" height="40" as="geometry" />
        </mxCell>
        <mxCell id="bT5ccE-IVqNjcDC3qMeR-52" value="fecha de pago" style="ellipse;whiteSpace=wrap;html=1;" vertex="1" parent="1">
          <mxGeometry x="1360" y="500" width="70" height="40" as="geometry" />
        </mxCell>
        <mxCell id="bT5ccE-IVqNjcDC3qMeR-53" value="compra" style="ellipse;whiteSpace=wrap;html=1;" vertex="1" parent="1">
          <mxGeometry x="1460" y="480" width="70" height="40" as="geometry" />
        </mxCell>
        <mxCell id="bT5ccE-IVqNjcDC3qMeR-55" value="Contacto" style="ellipse;whiteSpace=wrap;html=1;" vertex="1" parent="1">
          <mxGeometry x="860" y="530" width="70" height="40" as="geometry" />
        </mxCell>
        <mxCell id="bT5ccE-IVqNjcDC3qMeR-56" value="telefono" style="ellipse;whiteSpace=wrap;html=1;" vertex="1" parent="1">
          <mxGeometry x="950" y="490" width="70" height="40" as="geometry" />
        </mxCell>
        <mxCell id="bT5ccE-IVqNjcDC3qMeR-57" value="nombre" style="ellipse;whiteSpace=wrap;html=1;" vertex="1" parent="1">
          <mxGeometry x="970" y="420" width="70" height="40" as="geometry" />
        </mxCell>
        <mxCell id="bT5ccE-IVqNjcDC3qMeR-58" value="Dirección" style="ellipse;whiteSpace=wrap;html=1;" vertex="1" parent="1">
          <mxGeometry x="670" y="510" width="70" height="40" as="geometry" />
        </mxCell>
        <mxCell id="bT5ccE-IVqNjcDC3qMeR-59" value="fax" style="ellipse;whiteSpace=wrap;html=1;" vertex="1" parent="1">
          <mxGeometry x="770" y="530" width="70" height="40" as="geometry" />
        </mxCell>
        <mxCell id="bT5ccE-IVqNjcDC3qMeR-60" value="id" style="ellipse;whiteSpace=wrap;html=1;" vertex="1" parent="1">
          <mxGeometry x="970" y="340" width="70" height="40" as="geometry" />
        </mxCell>
        <mxCell id="bT5ccE-IVqNjcDC3qMeR-66" value="" style="endArrow=none;html=1;rounded=0;" edge="1" parent="1">
          <mxGeometry width="50" height="50" relative="1" as="geometry">
            <mxPoint x="180" y="760" as="sourcePoint" />
            <mxPoint x="338" y="650" as="targetPoint" />
          </mxGeometry>
        </mxCell>
        <mxCell id="bT5ccE-IVqNjcDC3qMeR-65" value="" style="shape=requiredInterface;html=1;verticalLabelPosition=bottom;sketch=0;rotation=90;" vertex="1" parent="1">
          <mxGeometry x="322.5" y="610" width="30" height="90" as="geometry" />
        </mxCell>
        <mxCell id="bT5ccE-IVqNjcDC3qMeR-67" value="Fabrica" style="text;html=1;align=center;verticalAlign=middle;resizable=0;points=[];autosize=1;strokeColor=none;fillColor=none;" vertex="1" parent="1">
          <mxGeometry x="510" y="278" width="60" height="30" as="geometry" />
        </mxCell>
        <mxCell id="bT5ccE-IVqNjcDC3qMeR-69" value="Compra&lt;div&gt;&lt;br&gt;&lt;/div&gt;" style="text;html=1;align=center;verticalAlign=middle;resizable=0;points=[];autosize=1;strokeColor=none;fillColor=none;" vertex="1" parent="1">
          <mxGeometry x="795" y="278" width="70" height="40" as="geometry" />
        </mxCell>
        <mxCell id="bT5ccE-IVqNjcDC3qMeR-71" value="Reserva" style="text;html=1;align=center;verticalAlign=middle;resizable=0;points=[];autosize=1;strokeColor=none;fillColor=none;" vertex="1" parent="1">
          <mxGeometry x="1145" y="275" width="70" height="30" as="geometry" />
        </mxCell>
        <mxCell id="bT5ccE-IVqNjcDC3qMeR-75" value="" style="endArrow=none;html=1;rounded=0;exitX=0.5;exitY=0;exitDx=0;exitDy=0;entryX=0.5;entryY=1;entryDx=0;entryDy=0;" edge="1" parent="1" source="bT5ccE-IVqNjcDC3qMeR-5" target="bT5ccE-IVqNjcDC3qMeR-43">
          <mxGeometry width="50" height="50" relative="1" as="geometry">
            <mxPoint x="560" y="440" as="sourcePoint" />
            <mxPoint x="610" y="390" as="targetPoint" />
          </mxGeometry>
        </mxCell>
        <mxCell id="bT5ccE-IVqNjcDC3qMeR-76" value="" style="endArrow=none;html=1;rounded=0;entryX=0.5;entryY=0;entryDx=0;entryDy=0;exitX=1;exitY=0.5;exitDx=0;exitDy=0;" edge="1" parent="1" source="bT5ccE-IVqNjcDC3qMeR-28" target="bT5ccE-IVqNjcDC3qMeR-5">
          <mxGeometry width="50" height="50" relative="1" as="geometry">
            <mxPoint x="230" y="420" as="sourcePoint" />
            <mxPoint x="280" y="370" as="targetPoint" />
          </mxGeometry>
        </mxCell>
        <mxCell id="bT5ccE-IVqNjcDC3qMeR-77" value="" style="endArrow=none;html=1;rounded=0;entryX=0;entryY=0.5;entryDx=0;entryDy=0;exitX=1;exitY=0.5;exitDx=0;exitDy=0;" edge="1" parent="1" source="bT5ccE-IVqNjcDC3qMeR-38" target="bT5ccE-IVqNjcDC3qMeR-5">
          <mxGeometry width="50" height="50" relative="1" as="geometry">
            <mxPoint x="230" y="470" as="sourcePoint" />
            <mxPoint x="250" y="410" as="targetPoint" />
          </mxGeometry>
        </mxCell>
        <mxCell id="bT5ccE-IVqNjcDC3qMeR-78" value="" style="endArrow=none;html=1;rounded=0;exitX=1;exitY=0;exitDx=0;exitDy=0;entryX=0.25;entryY=1;entryDx=0;entryDy=0;" edge="1" parent="1" source="bT5ccE-IVqNjcDC3qMeR-41" target="bT5ccE-IVqNjcDC3qMeR-5">
          <mxGeometry width="50" height="50" relative="1" as="geometry">
            <mxPoint x="250" y="510" as="sourcePoint" />
            <mxPoint x="300" y="460" as="targetPoint" />
          </mxGeometry>
        </mxCell>
        <mxCell id="bT5ccE-IVqNjcDC3qMeR-79" value="" style="endArrow=none;html=1;rounded=0;exitX=0.5;exitY=0;exitDx=0;exitDy=0;entryX=0.25;entryY=1;entryDx=0;entryDy=0;" edge="1" parent="1" source="bT5ccE-IVqNjcDC3qMeR-40" target="bT5ccE-IVqNjcDC3qMeR-5">
          <mxGeometry width="50" height="50" relative="1" as="geometry">
            <mxPoint x="560" y="440" as="sourcePoint" />
            <mxPoint x="610" y="390" as="targetPoint" />
          </mxGeometry>
        </mxCell>
        <mxCell id="bT5ccE-IVqNjcDC3qMeR-80" value="" style="endArrow=none;html=1;rounded=0;exitX=1;exitY=1;exitDx=0;exitDy=0;entryX=0;entryY=0;entryDx=0;entryDy=0;" edge="1" parent="1" source="bT5ccE-IVqNjcDC3qMeR-5" target="bT5ccE-IVqNjcDC3qMeR-46">
          <mxGeometry width="50" height="50" relative="1" as="geometry">
            <mxPoint x="560" y="440" as="sourcePoint" />
            <mxPoint x="610" y="390" as="targetPoint" />
          </mxGeometry>
        </mxCell>
        <mxCell id="bT5ccE-IVqNjcDC3qMeR-83" value="" style="endArrow=none;html=1;rounded=0;entryX=0.25;entryY=1;entryDx=0;entryDy=0;exitX=0.5;exitY=0;exitDx=0;exitDy=0;" edge="1" parent="1" source="bT5ccE-IVqNjcDC3qMeR-58" target="bT5ccE-IVqNjcDC3qMeR-3">
          <mxGeometry width="50" height="50" relative="1" as="geometry">
            <mxPoint x="720" y="510" as="sourcePoint" />
            <mxPoint x="770" y="460" as="targetPoint" />
          </mxGeometry>
        </mxCell>
        <mxCell id="bT5ccE-IVqNjcDC3qMeR-84" value="" style="endArrow=none;html=1;rounded=0;entryX=0.5;entryY=1;entryDx=0;entryDy=0;exitX=0.5;exitY=0;exitDx=0;exitDy=0;" edge="1" parent="1" source="bT5ccE-IVqNjcDC3qMeR-59" target="bT5ccE-IVqNjcDC3qMeR-3">
          <mxGeometry width="50" height="50" relative="1" as="geometry">
            <mxPoint x="800" y="530" as="sourcePoint" />
            <mxPoint x="850" y="480" as="targetPoint" />
          </mxGeometry>
        </mxCell>
        <mxCell id="bT5ccE-IVqNjcDC3qMeR-85" value="" style="endArrow=none;html=1;rounded=0;entryX=0.75;entryY=1;entryDx=0;entryDy=0;exitX=0.5;exitY=0;exitDx=0;exitDy=0;" edge="1" parent="1" source="bT5ccE-IVqNjcDC3qMeR-55" target="bT5ccE-IVqNjcDC3qMeR-3">
          <mxGeometry width="50" height="50" relative="1" as="geometry">
            <mxPoint x="880" y="530" as="sourcePoint" />
            <mxPoint x="930" y="480" as="targetPoint" />
          </mxGeometry>
        </mxCell>
        <mxCell id="bT5ccE-IVqNjcDC3qMeR-86" value="" style="endArrow=none;html=1;rounded=0;entryX=0;entryY=0;entryDx=0;entryDy=0;exitX=1;exitY=1;exitDx=0;exitDy=0;" edge="1" parent="1" source="bT5ccE-IVqNjcDC3qMeR-3" target="bT5ccE-IVqNjcDC3qMeR-56">
          <mxGeometry width="50" height="50" relative="1" as="geometry">
            <mxPoint x="920" y="500" as="sourcePoint" />
            <mxPoint x="970" y="450" as="targetPoint" />
          </mxGeometry>
        </mxCell>
        <mxCell id="bT5ccE-IVqNjcDC3qMeR-87" value="" style="endArrow=none;html=1;rounded=0;entryX=0;entryY=0;entryDx=0;entryDy=0;exitX=1;exitY=0.5;exitDx=0;exitDy=0;" edge="1" parent="1" source="bT5ccE-IVqNjcDC3qMeR-3" target="bT5ccE-IVqNjcDC3qMeR-57">
          <mxGeometry width="50" height="50" relative="1" as="geometry">
            <mxPoint x="940" y="450" as="sourcePoint" />
            <mxPoint x="990" y="400" as="targetPoint" />
          </mxGeometry>
        </mxCell>
        <mxCell id="bT5ccE-IVqNjcDC3qMeR-88" value="" style="endArrow=none;html=1;rounded=0;entryX=0;entryY=0.5;entryDx=0;entryDy=0;exitX=1;exitY=0.5;exitDx=0;exitDy=0;" edge="1" parent="1" source="bT5ccE-IVqNjcDC3qMeR-3" target="bT5ccE-IVqNjcDC3qMeR-60">
          <mxGeometry width="50" height="50" relative="1" as="geometry">
            <mxPoint x="950" y="360" as="sourcePoint" />
            <mxPoint x="1000" y="310" as="targetPoint" />
          </mxGeometry>
        </mxCell>
        <mxCell id="bT5ccE-IVqNjcDC3qMeR-91" value="" style="endArrow=none;html=1;rounded=0;entryX=0.25;entryY=1;entryDx=0;entryDy=0;exitX=0.5;exitY=0;exitDx=0;exitDy=0;" edge="1" parent="1" source="bT5ccE-IVqNjcDC3qMeR-51" target="bT5ccE-IVqNjcDC3qMeR-4">
          <mxGeometry width="50" height="50" relative="1" as="geometry">
            <mxPoint x="1220" y="505" as="sourcePoint" />
            <mxPoint x="1270" y="455" as="targetPoint" />
          </mxGeometry>
        </mxCell>
        <mxCell id="bT5ccE-IVqNjcDC3qMeR-92" value="" style="endArrow=none;html=1;rounded=0;entryX=0.5;entryY=1;entryDx=0;entryDy=0;exitX=0.5;exitY=0;exitDx=0;exitDy=0;" edge="1" parent="1" source="bT5ccE-IVqNjcDC3qMeR-52" target="bT5ccE-IVqNjcDC3qMeR-4">
          <mxGeometry width="50" height="50" relative="1" as="geometry">
            <mxPoint x="1370" y="500" as="sourcePoint" />
            <mxPoint x="1420" y="450" as="targetPoint" />
          </mxGeometry>
        </mxCell>
        <mxCell id="bT5ccE-IVqNjcDC3qMeR-93" value="" style="endArrow=none;html=1;rounded=0;entryX=1;entryY=1;entryDx=0;entryDy=0;exitX=0;exitY=0;exitDx=0;exitDy=0;" edge="1" parent="1" source="bT5ccE-IVqNjcDC3qMeR-53" target="bT5ccE-IVqNjcDC3qMeR-4">
          <mxGeometry width="50" height="50" relative="1" as="geometry">
            <mxPoint x="1420" y="490" as="sourcePoint" />
            <mxPoint x="1470" y="440" as="targetPoint" />
          </mxGeometry>
        </mxCell>
        <mxCell id="bT5ccE-IVqNjcDC3qMeR-94" value="" style="endArrow=none;html=1;rounded=0;entryX=0;entryY=0.5;entryDx=0;entryDy=0;exitX=1;exitY=0.5;exitDx=0;exitDy=0;" edge="1" parent="1" source="bT5ccE-IVqNjcDC3qMeR-4" target="bT5ccE-IVqNjcDC3qMeR-50">
          <mxGeometry width="50" height="50" relative="1" as="geometry">
            <mxPoint x="1430" y="440" as="sourcePoint" />
            <mxPoint x="1480" y="390" as="targetPoint" />
          </mxGeometry>
        </mxCell>
        <mxCell id="bT5ccE-IVqNjcDC3qMeR-97" value="1:1&lt;div&gt;&lt;br&gt;&lt;/div&gt;" style="text;html=1;align=center;verticalAlign=middle;resizable=0;points=[];autosize=1;strokeColor=none;fillColor=none;" vertex="1" parent="1">
          <mxGeometry x="720" y="160" width="40" height="40" as="geometry" />
        </mxCell>
        <mxCell id="bT5ccE-IVqNjcDC3qMeR-98" value="0:N" style="text;html=1;align=center;verticalAlign=middle;resizable=0;points=[];autosize=1;strokeColor=none;fillColor=none;" vertex="1" parent="1">
          <mxGeometry x="390" y="358" width="40" height="30" as="geometry" />
        </mxCell>
        <mxCell id="bT5ccE-IVqNjcDC3qMeR-99" value="0:N" style="text;html=1;align=center;verticalAlign=middle;resizable=0;points=[];autosize=1;strokeColor=none;fillColor=none;" vertex="1" parent="1">
          <mxGeometry x="790" y="358" width="40" height="30" as="geometry" />
        </mxCell>
        <mxCell id="bT5ccE-IVqNjcDC3qMeR-100" value="1:N" style="text;html=1;align=center;verticalAlign=middle;resizable=0;points=[];autosize=1;strokeColor=none;fillColor=none;" vertex="1" parent="1">
          <mxGeometry x="790" y="188" width="40" height="30" as="geometry" />
        </mxCell>
        <mxCell id="bT5ccE-IVqNjcDC3qMeR-101" value="1:N" style="text;html=1;align=center;verticalAlign=middle;resizable=0;points=[];autosize=1;strokeColor=none;fillColor=none;" vertex="1" parent="1">
          <mxGeometry x="890" y="158" width="40" height="30" as="geometry" />
        </mxCell>
        <mxCell id="bT5ccE-IVqNjcDC3qMeR-102" value="0:N" style="text;html=1;align=center;verticalAlign=middle;resizable=0;points=[];autosize=1;strokeColor=none;fillColor=none;" vertex="1" parent="1">
          <mxGeometry x="1340" y="358" width="40" height="30" as="geometry" />
        </mxCell>
        <mxCell id="bT5ccE-IVqNjcDC3qMeR-103" value="Fabrica" style="rhombus;whiteSpace=wrap;html=1;" vertex="1" parent="1">
          <mxGeometry x="550" y="380" width="80" height="80" as="geometry" />
        </mxCell>
        <mxCell id="bT5ccE-IVqNjcDC3qMeR-104" value="" style="endArrow=none;html=1;rounded=0;exitX=1;exitY=0.5;exitDx=0;exitDy=0;entryX=0;entryY=0.5;entryDx=0;entryDy=0;" edge="1" parent="1" source="bT5ccE-IVqNjcDC3qMeR-5" target="bT5ccE-IVqNjcDC3qMeR-103">
          <mxGeometry width="50" height="50" relative="1" as="geometry">
            <mxPoint x="420" y="430" as="sourcePoint" />
            <mxPoint x="470" y="380" as="targetPoint" />
          </mxGeometry>
        </mxCell>
        <mxCell id="bT5ccE-IVqNjcDC3qMeR-105" value="" style="endArrow=none;html=1;rounded=0;exitX=1;exitY=0.5;exitDx=0;exitDy=0;entryX=0;entryY=0.5;entryDx=0;entryDy=0;" edge="1" parent="1" source="bT5ccE-IVqNjcDC3qMeR-103" target="bT5ccE-IVqNjcDC3qMeR-3">
          <mxGeometry width="50" height="50" relative="1" as="geometry">
            <mxPoint x="660" y="410" as="sourcePoint" />
            <mxPoint x="710" y="360" as="targetPoint" />
          </mxGeometry>
        </mxCell>
        <mxCell id="bT5ccE-IVqNjcDC3qMeR-106" value="0:N" style="text;html=1;align=center;verticalAlign=middle;resizable=0;points=[];autosize=1;strokeColor=none;fillColor=none;" vertex="1" parent="1">
          <mxGeometry x="390" y="418" width="40" height="30" as="geometry" />
        </mxCell>
        <mxCell id="bT5ccE-IVqNjcDC3qMeR-107" value="1:N" style="text;html=1;align=center;verticalAlign=middle;resizable=0;points=[];autosize=1;strokeColor=none;fillColor=none;" vertex="1" parent="1">
          <mxGeometry x="720" y="398" width="40" height="30" as="geometry" />
        </mxCell>
        <mxCell id="bT5ccE-IVqNjcDC3qMeR-108" value="Datos bancarios" style="ellipse;whiteSpace=wrap;html=1;" vertex="1" parent="1">
          <mxGeometry x="1270" y="510" width="50" height="20" as="geometry" />
        </mxCell>
        <mxCell id="bT5ccE-IVqNjcDC3qMeR-109" value="" style="endArrow=none;html=1;rounded=0;entryX=0.871;entryY=0.018;entryDx=0;entryDy=0;exitX=0.871;exitY=0.995;exitDx=0;exitDy=0;exitPerimeter=0;entryPerimeter=0;" edge="1" parent="1" source="bT5ccE-IVqNjcDC3qMeR-3" target="bT5ccE-IVqNjcDC3qMeR-3">
          <mxGeometry width="50" height="50" relative="1" as="geometry">
            <mxPoint x="840" y="480" as="sourcePoint" />
            <mxPoint x="930" y="630" as="targetPoint" />
          </mxGeometry>
        </mxCell>
        <mxCell id="bT5ccE-IVqNjcDC3qMeR-110" value="" style="endArrow=none;html=1;rounded=0;entryX=0.75;entryY=0;entryDx=0;entryDy=0;exitX=0.75;exitY=1;exitDx=0;exitDy=0;" edge="1" parent="1">
          <mxGeometry width="50" height="50" relative="1" as="geometry">
            <mxPoint x="789.17" y="450" as="sourcePoint" />
            <mxPoint x="789.17" y="390" as="targetPoint" />
          </mxGeometry>
        </mxCell>
        <mxCell id="bT5ccE-IVqNjcDC3qMeR-111" value="" style="endArrow=none;html=1;rounded=0;entryX=0.75;entryY=0;entryDx=0;entryDy=0;exitX=0.75;exitY=1;exitDx=0;exitDy=0;" edge="1" parent="1">
          <mxGeometry width="50" height="50" relative="1" as="geometry">
            <mxPoint x="1400" y="450" as="sourcePoint" />
            <mxPoint x="1400" y="390" as="targetPoint" />
          </mxGeometry>
        </mxCell>
        <mxCell id="bT5ccE-IVqNjcDC3qMeR-112" value="" style="endArrow=none;html=1;rounded=0;entryX=0.75;entryY=0;entryDx=0;entryDy=0;exitX=0.75;exitY=1;exitDx=0;exitDy=0;" edge="1" parent="1">
          <mxGeometry width="50" height="50" relative="1" as="geometry">
            <mxPoint x="1320" y="450" as="sourcePoint" />
            <mxPoint x="1320" y="390" as="targetPoint" />
          </mxGeometry>
        </mxCell>
      </root>
    </mxGraphModel>
  </diagram>
</mxfile>
